FFmpeg version SVN-r25716, Copyright (c) 2000-2010 the FFmpeg developers  built on Nov 10 2010 12:23:18 with gcc 4.1.2 20080704 (Red Hat 4.1.2-48)  configuration: --enable-libmp3lame --enable-shared --disable-mmx --arch=x86_64  libavutil     50.33. 0 / 50.33. 0  libavcore      0.12. 1 /  0.12. 1  libavcodec    52.94. 4 / 52.94. 4  libavformat   52.84. 0 / 52.84. 0  libavdevice   52. 2. 2 / 52. 2. 2  libavfilter    1.59. 0 /  1.59. 0  libswscale     0.12. 0 /  0.12. 0[mpegvideo @ 0x4ebc4c0] max_analyze_duration reached[mpegvideo @ 0x4ebc4c0] Estimating duration from bitrate, this may be inaccurateInput #0, mpegvideo, from '/RAID10/data/converted_video_files/10525.mpg':  Duration: 00:00:00.48, bitrate: 104857 kb/s    Stream #0.0: Video: mpeg1video, yuv420p, 576x416 [PAR 1:1 DAR 18:13], 104857 kb/s, 30 fps, 30 tbr, 1200k tbn, 30 tbc[buffer @ 0x4ebdc60] w:576 h:416 pixfmt:yuv420pOutput #0, flv, to '/RAID10/data/converted_video_files/10525.flv':  Metadata:    encoder         : Lavf52.84.0    Stream #0.0: Video: flv, yuv420p, 576x416 [PAR 1:1 DAR 18:13], q=2-31, 600 kb/s, 1k tbn, 24 tbcStream mapping:  Stream #0.0 -> #0.0Press [q] to stop encodingframe=   57 fps=  0 q=15.8 size=     310kB time=2.42 bitrate=1049.1kbits/s dup=0 drop=14    frame=  123 fps=120 q=15.4 size=     541kB time=5.17 bitrate= 858.5kbits/s dup=0 drop=31    frame=  197 fps=129 q=13.3 size=     767kB time=8.25 bitrate= 761.9kbits/s dup=0 drop=49    frame=  258 fps=127 q=15.1 size=     955kB time=10.79 bitrate= 724.9kbits/s dup=0 drop=64    frame=  335 fps=132 q=15.8 size=    1182kB time=14.00 bitrate= 691.4kbits/s dup=0 drop=84    frame=  414 fps=137 q=14.8 size=    1417kB time=17.29 bitrate= 671.1kbits/s dup=0 drop=103    frame=  490 fps=138 q=17.1 size=    1644kB time=20.46 bitrate= 658.3kbits/s dup=0 drop=122    frame=  552 fps=136 q=18.2 size=    1835kB time=23.04 bitrate= 652.2kbits/s dup=0 drop=138    frame=  621 fps=137 q=16.2 size=    2045kB time=25.92 bitrate= 646.5kbits/s dup=0 drop=155    frame=  683 fps=135 q=13.2 size=    2229kB time=28.50 bitrate= 640.8kbits/s dup=0 drop=171    frame=  720 fps=135 q=14.9 Lsize=    2341kB time=30.04 bitrate= 638.3kbits/s dup=0 drop=180    video:2330kB audio:0kB global headers:0kB muxing overhead 0.491739%